<svg xmlns="http://www.w3.org/2000/svg" width="320" height="300" xmlns:v="https://vecta.io/nano"><style><![CDATA[.B{fill:#f9f9f9}.C{fill:#818181}.D{fill:#112131}.E{fill:#d1c9c9}.F{fill:#d19161}.G{fill:#a16949}.H{fill:#316161}.I{fill:#294149}.J{fill:#f95959}.K{fill:#f9b981}.L{fill:#b90101}.M{fill:#d90101}.N{fill:#790901}.O{fill:#0941a9}]]></style><path d="M180 0v10h20v10h10v10h-20V20h-20V10h-20v10h-20v10h-20V20h10V10h20V0z" class="J"/><path d="M170 10v10h10v10h-10V20h-20v10h-10V20h10V10z" class="B"/><path d="M140 20v10h10v10h-10V30h-10v10h-10v10h-10V30h20V20z" class="M"/><path d="M170 20v10h-20V20z" class="L"/><path d="M190 20v10h20v20h-10V40h-10V30h-10v10h-10V30h10V20z" class="M"/><path d="M140 30v20h-20v10h-20V40h10v10h10V40h10V30z" class="L"/><path d="M170 30v10h-20V30z" class="J"/><path d="M190 30v10h10v10h10V40h10v20h-20V50h-20V30z" class="L"/><path d="M180 40v10h20v10h20v30h-10V80h-10V70h-10V60h-60v10h-10v10h-10v10h-10V60h20V50h20V40z" class="N"/><path d="M140 60v10h-10V60z" class="D"/><path d="M150 60v10h-10V60z" class="I"/><path d="M170 60v10h-20V60z" class="G"/><path d="M180 60v10h-10V60z" class="I"/><path d="M190 60v10h-10V60z" class="D"/><path d="M130 70v10h-10V70z" class="G"/><path d="M140 70v10h-10v10h-10V80h10V70z" class="F"/><path d="M150 70v10h-10V70z" class="H"/><path d="M170 70v10h-20V70z" class="F"/><path d="M180 70v10h-10V70z" class="H"/><path d="M190 70v10h10v10h-10V80h-10V70z" class="F"/><path d="M200 70v10h-10V70z" class="G"/><path d="M120 80v10h-10V80z" class="D"/><path d="M140 80v10h-10V80z" class="B"/><path d="M150 80v10h-10V80z" class="O"/><path d="M170 80v10h-20V80z" class="K"/><path d="M180 80v10h-10V80z" class="O"/><path d="M190 80v10h-10V80z" class="B"/><path d="M210 80v10h-10V80z" class="D"/><path d="M110 90v10h-10V90z" class="K"/><path d="M120 90v10h-10V90z" class="I"/><path d="M130 90v10h-10V90z" class="K"/><path d="M140 90v10h-10V90z" class="E"/><path d="M150 90v10h-10V90z" class="D"/><path d="M170 90v10h-20V90z" class="F"/><path d="M180 90v10h-10V90z" class="D"/><path d="M190 90v10h-10V90z" class="E"/><path d="M200 90v10h-10V90z" class="K"/><path d="M210 90v10h-10V90z" class="I"/><path d="M220 90v10h-10V90z" class="K"/><path d="M110 100v10h-10v-10z" class="F"/><path d="M120 100v30h-10v-10h-10v-10h10v-10z" class="G"/><path d="M130 100v10h-10v-10z" class="F"/><path d="M140 100v10h10v10h-10v-10h-10v-10z" class="G"/><path d="M180 100v10h-10v10h-20v-10h-10v-10z" class="K"/><path d="M200 100v10h-20v-10z" class="F"/><path d="M210 100v10h10v10h-10v10h-10v-30z" class="G"/><path d="M220 100v10h-10v-10z" class="F"/><path d="M90 110v10H70v-10z" class="B"/><path d="M130 110v10h-10v-10z" class="I"/><path d="M140 110v10h40v-10h10v20h-60v-20z" class="D"/><path d="M180 110v10h-10v-10z" class="G"/><path d="M200 110v10h-10v-10z" class="I"/><path d="M250 110v10h-20v-10z" class="B"/><path d="M90 120v10H70v-10z" class="E"/><path d="M120 120h10v10h-10v-10m80 0v10h-10v-10z" class="F"/><path d="M250 120v10h-20v-10z" class="E"/><path d="M90 130v10h10v-10h20v10h-20v10H90v10H80v20H70v-10H60v10H0v-10h60v-10h10v-10h20v-10H70v-10z" class="C"/><path d="M130 130v10h10v10h-10v-10h-10v-10z" class="H"/><path d="M140 130v10h-10v-10z" class="G"/><path d="M180 130v10h-40v-10z" class="F"/><path d="M190 130v10h-10v-10z" class="G"/><path d="M200 130v10h-10v10h-10v-10h10v-10z" class="H"/><path d="M220 130v10h10v-10h20v10h-20v10h20v10h10v10h60v10h-60v-10h-10v10h-10v-20h-10v-10h-10v-10h-20v-10z" class="C"/><path d="M90 140v10H70v-10z" class="E"/><path d="M120 140v10h-10v10h-10v-20z" class="B"/><path d="M130 140v20h-20v10H90v-20h10v10h10v-10h10v-10z" class="E"/><path d="M180 140v10h10v10h10v10h-20v-20h-40v20h-20v-10h10v-10h10v-10z" class="D"/><path d="M200 140v10h10v10h10v-10h10v20h-20v-10h-20v-20z" class="E"/><path d="M220 140v20h-10v-10h-10v-10z" class="B"/><path d="M250 140v10h-20v-10z" class="E"/><path d="M70 150v10H60v-10z" class="B"/><path d="M180 150v10h-40v-10z" class="L"/><path d="M260 150v10h-10v-10z" class="B"/><path d="M90 160v30H80v10H70v-20H60v10H0v-10h60v-10h10v10h10v-20z" class="H"/><path d="M120 160v10h-10v-10z" class="C"/><path d="M180 160v10h-40v-10z" class="O"/><path d="M210 160v10h-10v-10z" class="C"/><path d="M240 160v20h10v-10h10v10h60v10h-60v-10h-10v20h-10v-10h-10v-30z" class="H"/><path d="M100 170v10H90v-10z" class="C"/><path d="M120 170v10h-20v-10z" class="N"/><path d="M200 170v10h20v20h-10v-10h-20v10h-10v-10h-10v-10h-20v10h-10v10h-10v-10h-20v10h-10v-20h20v-10z" class="J"/><path d="M220 170v10h-20v-10z" class="N"/><path d="M230 170v10h-10v-10z" class="C"/><path d="M70 180v20h10v-10h10v-10h10v10H90v20H70v-10H10v30h40v10H40v10H30v10H10v20H0v-90h60v-10z" class="I"/><path d="M130 180h10v10h-10v-10m20 0h20v10h-20v-10m40 0v10h-10v-10z" class="B"/><path d="M230 180v10h10v10h10v-20h10v10h60v90h-10v-20h-20v-10h-10v-10h-10v-10h40v-30h-60v10h-20v-20h-10v-10z" class="I"/><path d="M100 190v20H90v20H70v10h20v10H70v-10H60v-40h10v10h20v-20z" class="D"/><path d="M120 190v30h80v-30h10v10h10v20h-20v10h-80v-10h-20v-20h10v-10z" class="M"/><path d="M130 190v10h-10v-10z" class="B"/><path d="M180 190v10h10v10h-10v-10h-40v10h-10v-10h10v-10z" class="M"/><path d="M200 190v10h-10v-10z" class="B"/><path d="M230 190v20h20v-10h10v40h-10v10h-20v-10h20v-10h-20v-20h-10v-20z" class="D"/><path d="M60 200v10H10v-10z" class="C"/><path d="M130 200v10h10v10h-10v-10h-10v-10z" class="E"/><path d="M150 200v20h-10v-20z" class="B"/><path d="M170 200v10h-20v-10z" class="J"/><path d="M180 200v20h-10v-20z" class="B"/><path d="M200 200v10h-10v10h-10v-10h10v-10z" class="E"/><path d="M310 200v10h-50v-10z" class="C"/><path d="M60 210v20H10v-20z" class="H"/><path d="M100 210v20h120v-20h10v40h-30v-10h-80v10H90v-40z" class="N"/><path d="M130 210v10h-10v-10z" class="J"/><path d="M170 210v10h-20v-10z" class="E"/><path d="M200 210v10h-10v-10z" class="J"/><path d="M310 210v20h-50v-20z" class="H"/><path d="M100 220h20v10h-20v-10m120 0v10h-20v-10z" class="L"/><path d="M60 230v20h10v10H60v10h200v-10h-10v-10h10v-20h10v20h10v10h10v10h-10v10H40v-10H30v-10h10v-10h10v-20z" class="E"/><path d="M80 230v10H70v-10z" class="C"/><path d="M80 230h10v10H80v-10m160 0v10h-10v-10z" class="H"/><path d="M240 230h10v10h-10v-10M50 240v10H40v-10z" class="C"/><path d="M70 240v10H60v-10z" class="B"/><path d="M200 240v10h-80v-10z" class="D"/><path d="M260 240v10h-10v-10z" class="B"/><path d="M270 240h10v10h-10v-10M40 250v10H30v-10z" class="C"/><path d="M250 250v10h10v10H60v-10h10v-10z" class="B"/><path d="M290 250v10h-10v-10z" class="C"/><path d="M20 260v10h10v10h260v-10h10v-10h10v20h10v20h-70v-10H70v10H0v-20h10v-20z" class="D"/><path d="M20 260h10v10H20v-10m270 0h10v10h-10v-10M30 270h10v10H30v-10m260 0v10h-10v-10z" class="C"/></svg>